<?xml version="1.0" standalone="no"?>
<!DOCTYPE svg PUBLIC "-//W3C//DTD SVG 20010904//EN"
 "http://www.w3.org/TR/2001/REC-SVG-20010904/DTD/svg10.dtd">
<svg version="1.0" xmlns="http://www.w3.org/2000/svg"
 width="64.000000pt" height="64.000000pt" viewBox="0 0 64.000000 64.000000"
 preserveAspectRatio="xMidYMid meet">

<g transform="translate(0.000000,64.000000) scale(0.100000,-0.100000)"
fill="#000000" stroke="none">
<path d="M10 625 c-17 -20 -9 -48 18 -60 12 -5 22 -18 22 -27 0 -14 6 -16 30
-11 19 3 30 1 30 -6 0 -7 9 -9 25 -5 16 4 25 2 25 -5 0 -8 -24 -11 -77 -9 -77
3 -78 3 -78 -22 0 -19 6 -26 23 -28 18 -3 22 -8 16 -20 -42 -95 -57 -278 -28
-333 14 -28 14 -32 -1 -50 -32 -34 -13 -49 65 -49 39 0 70 4 70 10 0 6 9 6 26
0 14 -6 111 -10 215 -10 l191 0 29 30 c28 28 30 33 27 102 -3 72 -3 73 -30 73
-34 -1 -35 10 -5 36 l22 19 -22 19 c-20 17 -20 19 -6 34 13 13 14 19 3 31 -7
9 -18 16 -26 16 -22 0 -27 20 -9 40 22 25 13 50 -19 50 -21 0 -24 4 -22 32 1
27 -3 33 -24 38 -19 4 -25 11 -25 30 0 23 -4 25 -42 25 -31 0 -48 6 -63 23
-24 26 -52 28 -74 7 -12 -13 -29 -13 -112 -5 -60 6 -104 16 -114 25 -21 19
-44 19 -60 0z m47 -20 c6 -10 40 -18 113 -25 58 -6 105 -12 105 -13 0 -1 5
-11 11 -22 16 -28 69 -32 85 -6 12 18 15 18 40 5 54 -28 119 -140 140 -242 23
-112 -15 -233 -85 -266 -36 -17 -156 -22 -156 -7 0 11 25 21 51 21 24 0 25 16
2 29 -23 13 -21 80 3 98 10 7 35 13 56 13 21 0 38 5 38 10 0 6 -4 10 -9 10 -4
0 -11 29 -13 63 -8 90 -58 162 -58 83 0 -19 -4 -38 -10 -41 -5 -3 -10 -1 -10
5 0 6 -8 10 -17 8 -14 -2 -19 6 -23 32 l-5 35 -85 0 -85 0 -5 -35 c-4 -26 -9
-34 -23 -32 -9 2 -17 -2 -17 -8 0 -6 -4 -8 -10 -5 -5 3 -10 22 -10 41 0 48
-14 42 -28 -11 -31 -117 4 -233 86 -287 15 -10 22 -18 16 -18 -18 0 -94 70
-111 104 -23 42 -21 153 4 231 l19 60 62 3 c34 2 62 7 62 11 0 9 -73 21 -131
21 -22 0 -39 4 -39 10 0 6 31 7 83 2 45 -4 107 -7 137 -7 52 0 55 1 55 25 0
23 -7 27 -110 52 -60 15 -120 27 -132 28 -24 0 -38 15 -28 30 9 14 23 12 32
-5z m298 -35 c0 -18 -6 -26 -23 -28 -13 -2 -25 3 -28 12 -10 26 4 48 28 44 17
-2 23 -10 23 -28z m-148 -66 c-3 -3 -12 -4 -19 -1 -8 3 -5 6 6 6 11 1 17 -2
13 -5z m93 -143 c0 -15 -10 -21 -40 -26 -56 -9 -100 2 -100 26 0 17 8 19 70
19 62 0 70 -2 70 -19z m19 -63 c9 -15 5 -18 -35 -24 -42 -6 -117 0 -135 12 -5
2 -6 10 -3 17 3 8 30 12 83 12 64 0 81 -3 90 -17z m-204 -23 c30 -15 62 -19
125 -19 80 0 100 4 173 42 4 2 7 -8 7 -23 0 -42 -53 -59 -180 -59 -127 0 -180
17 -180 59 0 15 3 25 8 23 4 -2 25 -13 47 -23z m40 -77 c27 -6 82 -8 122 -5
l72 5 -16 -24 c-8 -13 -27 -27 -40 -30 -41 -11 -153 4 -187 24 -35 20 -51 60
-20 48 11 -4 41 -12 69 -18z m262 16 c-3 -3 -12 -4 -19 -1 -8 3 -5 6 6 6 11 1
17 -2 13 -5z m152 -108 c-9 -8 -10 -5 -5 14 3 14 7 34 7 45 1 11 4 5 6 -14 3
-19 -1 -39 -8 -45z m43 32 c-5 -51 -17 -68 -46 -68 -19 0 -19 1 4 13 20 10 26
21 28 55 2 23 6 42 10 42 4 0 6 -19 4 -42z m-354 -16 c53 3 62 1 62 -14 0 -24
-39 -32 -118 -25 -48 5 -72 12 -89 29 -34 32 -29 37 30 21 28 -8 80 -13 115
-11z m5 -69 c-13 -2 -35 -2 -50 0 -16 2 -5 4 22 4 28 0 40 -2 28 -4z m5 -30
c-10 -2 -28 -2 -40 0 -13 2 -5 4 17 4 22 1 32 -1 23 -4z"/>
<path d="M30 600 c0 -5 5 -10 10 -10 6 0 10 5 10 10 0 6 -4 10 -10 10 -5 0
-10 -4 -10 -10z"/>
<path d="M313 575 c-3 -9 -3 -18 0 -22 10 -10 37 6 37 22 0 20 -29 20 -37 0z"/>
</g>
</svg>
